<svg xmlns="http://www.w3.org/2000/svg" style="display: none;">
  <!-- Medical Category Icons -->
  <defs>
    <!-- Stethoscope Icon -->
    <symbol id="stethoscope" viewBox="0 0 24 24">
      <path d="M19 14a3 3 0 1 1-3-3 3 3 0 0 1 3 3Z"/>
      <path d="M12 11c0 2.5 2.5 5 5 5s5-2.5 5-5-2.5-5-5-5-5 2.5-5 5Z"/>
      <path d="M12 11V9a4 4 0 0 0-8 0v2"/>
      <path d="M8 15a6 6 0 0 0 12 0v-3"/>
    </symbol>

    <!-- Heart Icon -->
    <symbol id="heart-medical" viewBox="0 0 24 24">
      <path d="M20.84 4.61a5.5 5.5 0 0 0-7.78 0L12 5.67l-1.06-1.06a5.5 5.5 0 0 0-7.78 7.78l1.06 1.06L12 21.23l7.78-7.78 1.06-1.06a5.5 5.5 0 0 0 0-7.78z"/>
      <path d="M12 8v8"/>
      <path d="M8 12h8"/>
    </symbol>

    <!-- X-Ray Icon -->
    <symbol id="xray" viewBox="0 0 24 24">
      <path d="M21 9V7a2 2 0 0 0-2-2H5a2 2 0 0 0-2 2v2"/>
      <path d="M21 15v2a2 2 0 0 1-2 2H5a2 2 0 0 1-2-2v-2"/>
      <path d="M7 12h10"/>
      <path d="M7 16h10"/>
      <circle cx="12" cy="12" r="2"/>
    </symbol>

    <!-- Pill Icon -->
    <symbol id="pill" viewBox="0 0 24 24">
      <path d="M10.5 20.5 21 10a3.5 3.5 0 0 0-5-5l-10.5 10.5a3.5 3.5 0 0 0 5 5Z"/>
      <path d="M8.5 8.5 15 15"/>
    </symbol>

    <!-- Tooth Icon -->
    <symbol id="tooth" viewBox="0 0 24 24">
      <path d="M12 2C8 2 5 5 5 9c0 5 2 8 3 12 1 4 2 1 4 1s3 3 4-1c1-4 3-7 3-12 0-4-3-7-7-7Z"/>
    </symbol>

    <!-- Therapy Icon -->
    <symbol id="therapy" viewBox="0 0 24 24">
      <path d="M12 2a3 3 0 0 1 3 3c0 1-1 1-1 1H9s-1 0-1-1a3 3 0 0 1 3-3Z"/>
      <path d="M19 14c1.49-1.46 3-3.21 3-5.5A5.5 5.5 0 0 0 16.5 3c-1.76 0-3 .5-4.5 2-1.5-1.5-2.74-2-4.5-2A5.5 5.5 0 0 0 2 8.5c0 2.29 1.51 4.04 3 5.5"/>
      <path d="M12 5L8 21l4-7 4 7-4-16"/>
    </symbol>

    <!-- Navigation Icons -->
    <symbol id="home" viewBox="0 0 24 24">
      <path d="M3 9l9-7 9 7v11a2 2 0 0 1-2 2H5a2 2 0 0 1-2-2z"/>
      <polyline points="9,22 9,12 15,12 15,22"/>
    </symbol>

    <symbol id="briefcase" viewBox="0 0 24 24">
      <rect x="2" y="7" width="20" height="14" rx="2" ry="2"/>
      <path d="M16 21V5a2 2 0 0 0-2-2h-4a2 2 0 0 0-2 2v16"/>
    </symbol>

    <symbol id="user-check" viewBox="0 0 24 24">
      <path d="M16 21v-2a4 4 0 0 0-4-4H5a4 4 0 0 0-4 4v2"/>
      <circle cx="8.5" cy="7" r="4"/>
      <polyline points="17,11 19,13 23,9"/>
    </symbol>

    <!-- Interactive Elements -->
    <symbol id="arrow-right" viewBox="0 0 24 24">
      <line x1="5" y1="12" x2="19" y2="12"/>
      <polyline points="12,5 19,12 12,19"/>
    </symbol>

    <symbol id="play-circle" viewBox="0 0 24 24">
      <circle cx="12" cy="12" r="10"/>
      <polygon points="10,8 16,12 10,16 10,8"/>
    </symbol>

    <symbol id="star" viewBox="0 0 24 24">
      <polygon points="12,2 15.09,8.26 22,9.27 17,14.14 18.18,21.02 12,17.77 5.82,21.02 7,14.14 2,9.27 8.91,8.26 12,2"/>
    </symbol>

    <!-- Status Icons -->
    <symbol id="check-circle" viewBox="0 0 24 24">
      <path d="M22 11.08V12a10 10 0 1 1-5.93-9.14"/>
      <polyline points="22,4 12,14.01 9,11.01"/>
    </symbol>

    <symbol id="alert-circle" viewBox="0 0 24 24">
      <circle cx="12" cy="12" r="10"/>
      <line x1="12" y1="8" x2="12" y2="12"/>
      <line x1="12" y1="16" x2="12.01" y2="16"/>
    </symbol>

    <symbol id="info-circle" viewBox="0 0 24 24">
      <circle cx="12" cy="12" r="10"/>
      <line x1="12" y1="16" x2="12" y2="12"/>
      <line x1="12" y1="8" x2="12.01" y2="8"/>
    </symbol>
  </defs>
</svg>
